<?xml version="1.0" encoding="UTF-8" standalone="no"?>
<!-- Created with Inkscape (http://www.inkscape.org/) -->

<svg
   xmlns:dc="http://purl.org/dc/elements/1.1/"
   xmlns:cc="http://creativecommons.org/ns#"
   xmlns:rdf="http://www.w3.org/1999/02/22-rdf-syntax-ns#"
   xmlns:svg="http://www.w3.org/2000/svg"
   xmlns="http://www.w3.org/2000/svg"
   xmlns:sodipodi="http://sodipodi.sourceforge.net/DTD/sodipodi-0.dtd"
   xmlns:inkscape="http://www.inkscape.org/namespaces/inkscape"
   width="400"
   height="150"
   id="svg2"
   version="1.1"
   inkscape:version="0.48.1 r9760"
   sodipodi:docname="logo.svg"
   inkscape:export-filename="/var/www/revista_art/v2/logo.png"
   inkscape:export-xdpi="90"
   inkscape:export-ydpi="90">
  <defs
     id="defs4" />
  <sodipodi:namedview
     id="base"
     pagecolor="#202020"
     bordercolor="#666666"
     borderopacity="1.0"
     inkscape:pageopacity="1"
     inkscape:pageshadow="2"
     inkscape:zoom="0.9983453"
     inkscape:cx="124.38206"
     inkscape:cy="150.40444"
     inkscape:document-units="px"
     inkscape:current-layer="layer1"
     showgrid="false"
     showguides="true"
     inkscape:guide-bbox="true"
     inkscape:window-width="1362"
     inkscape:window-height="714"
     inkscape:window-x="0"
     inkscape:window-y="52"
     inkscape:window-maximized="0">
    <inkscape:grid
       type="xygrid"
       id="grid3025"
       empspacing="5"
       visible="true"
       enabled="true"
       snapvisiblegridlinesonly="true" />
  </sodipodi:namedview>
  <metadata
     id="metadata7">
    <rdf:RDF>
      <cc:Work
         rdf:about="">
        <dc:format>image/svg+xml</dc:format>
        <dc:type
           rdf:resource="http://purl.org/dc/dcmitype/StillImage" />
        <dc:title></dc:title>
      </cc:Work>
    </rdf:RDF>
  </metadata>
  <g
     inkscape:label="Camada 1"
     inkscape:groupmode="layer"
     id="layer1"
     transform="translate(0,-902.36218)">
    <flowRoot
       xml:space="preserve"
       id="flowRoot3777"
       style="font-size:40px;font-style:normal;font-variant:normal;font-weight:normal;font-stretch:normal;line-height:125%;letter-spacing:0px;word-spacing:0px;fill:#000000;fill-opacity:1;stroke:none;font-family:Cicle;-inkscape-font-specification:Cicle"
       transform="translate(4.2299889e-7,-50.193976)"><flowRegion
         id="flowRegion3779"><rect
           id="rect3781"
           width="306.50717"
           height="160.2652"
           x="-353.58508"
           y="-179.5453" /></flowRegion><flowPara
         id="flowPara3783" /></flowRoot>    <g
       transform="matrix(2.9597723,0,0,3.1037426,722.52213,1639.4553)"
       style="font-size:64px;font-style:normal;font-variant:normal;font-weight:bold;font-stretch:normal;line-height:125%;letter-spacing:0px;word-spacing:0px;fill:#f0f0f0;fill-opacity:1;stroke:none;font-family:'Otama.ep';-inkscape-font-specification:'Otama.ep Bold'"
       id="flowRoot3803">
      <path
         d="m -184.6965,-221.52558 c 3.57614,-1.70615 7.14465,3.68008 3.98476,6.23582 -3.11428,2.95579 -7.97836,-1.21848 -5.84163,-4.8624 2.05157,-4.70563 7.85962,-5.66793 12.42342,-5.07645 3.67212,0.40355 7.035,3.01227 7.82408,6.70916 1.13866,4.65918 0.39645,9.50626 0.62196,14.24696 0.38649,2.55817 -0.97441,6.54941 1.13157,8.25406 1.27234,-0.8017 3.52699,-1.59503 1.64292,0.55294 -3.07698,2.89227 -8.82095,2.44532 -11.09908,-1.22809 -4.06838,4.32866 -12.11925,4.14483 -15.81709,-0.5447 -2.49842,-3.61599 -0.95574,-9.15343 3.14835,-10.84238 3.6113,-2.02296 7.78445,-2.61424 11.83674,-3.07692 -0.31013,-3.82294 0.83948,-8.10494 -1.17727,-11.57012 -2.432,-2.50034 -6.68997,-1.2385 -8.67873,1.20212 z m 6.528,26.048 c 4.11828,0.1012 3.90946,-4.46385 3.33103,-7.26877 -0.27462,-2.32391 0.52497,-5.89649 -0.39066,-7.44401 -4.68116,0.92498 -7.51458,6.13471 -6.41374,10.65137 0.27378,1.82645 1.31071,4.0871 3.47337,4.06141 z"
         id="path3812"
         inkscape:connector-curvature="0" />
      <path
         d="m -139.6375,-225.36558 c 3.98036,-0.51346 7.94694,4.26567 5.45942,7.85669 -2.24057,3.20372 -7.97265,0.65278 -6.83083,-3.19022 0.46451,-1.94859 2.54015,-3.56028 4.57141,-3.00247 -3.66052,-2.4318 -8.4386,0.83151 -9.12477,4.76512 -0.59255,3.68973 -0.16512,7.4578 -0.28323,11.18711 0,4.17592 0,8.35185 0,12.52777 1.28,0 2.56,0 3.84,0 -0.2414,1.70826 -2.97541,0.49238 -4.36316,0.832 -4.15628,0 -8.31256,0 -12.46884,0 0.26777,-2.08733 5.17094,0.76313 3.84,-2.92607 0,-8.81664 0,-17.63329 0,-26.44993 -1.28,0 -2.56,0 -3.84,0 0.2414,-1.70826 2.97541,-0.49238 4.36316,-0.832 2.76961,0 5.53923,0 8.30884,0 -0.18681,1.28619 -0.0317,4.56668 1.254,1.797 1.3762,-1.43014 3.23508,-2.5675 5.274,-2.565 z"
         id="path3814"
         inkscape:connector-curvature="0" />
      <path
         d="m -112.1645,-195.86158 c -3.43255,2.97533 -9.14922,3.08365 -12.63562,0.17379 -3.30545,-3.45048 -2.40501,-8.55549 -2.53238,-12.91508 0,-5.05424 0,-10.10847 0,-15.16271 -1.09009,0.42611 -4.35539,-0.40544 -1.77557,-0.88201 3.83503,1.25567 -0.33779,-5.49641 3.74221,-4.32669 3.19987,-0.29238 5.41583,-3.19594 6.70264,-5.42504 1.06248,0.97935 0.23729,3.00348 0.48271,4.43698 0,1.78825 0,3.57651 0,5.36476 1.94133,0 3.88267,0 5.824,0 -0.2414,1.70826 -2.97541,0.49238 -4.36316,0.832 -2.49796,-0.70076 -1.11123,2.46795 -1.45289,3.92334 0.0693,7.44063 -0.20957,14.91126 0.1778,22.33248 0.88263,2.83058 4.21637,1.52834 5.83026,1.64818 z"
         id="path3816"
         inkscape:connector-curvature="0" />
    </g>
    <g
       id="g3910"
       transform="translate(0,10.99999)"
       style="opacity:0.6">
      <path
         inkscape:connector-curvature="0"
         id="path3878"
         d="m 21.014917,912.36218 c 0,40.00001 0,80.00001 0,120.00002"
         style="fill:none;stroke:#eaeaea;stroke-width:17.57781028999999862;stroke-linecap:butt;stroke-linejoin:miter;stroke-miterlimit:4;stroke-opacity:1;stroke-dasharray:none" />
      <path
         inkscape:connector-curvature="0"
         id="path3898"
         d="m 41.014917,912.36218 c 0,40.00001 0,80.00001 0,120.00002"
         style="fill:none;stroke:#eaeaea;stroke-width:17.57781028999999862;stroke-linecap:butt;stroke-linejoin:miter;stroke-miterlimit:4;stroke-opacity:1;stroke-dasharray:none" />
      <path
         inkscape:connector-curvature="0"
         id="path3900"
         d="m 61.014917,912.36218 c 0,40.00001 0,80.00001 0,120.00002"
         style="fill:none;stroke:#eaeaea;stroke-width:17.57781028999999862;stroke-linecap:butt;stroke-linejoin:miter;stroke-miterlimit:4;stroke-opacity:1;stroke-dasharray:none" />
      <path
         inkscape:connector-curvature="0"
         id="path3902"
         d="m 81.014917,912.36218 c 0,40.00001 0,80.00001 0,120.00002"
         style="fill:none;stroke:#eaeaea;stroke-width:17.57781028999999862;stroke-linecap:butt;stroke-linejoin:miter;stroke-miterlimit:4;stroke-opacity:1;stroke-dasharray:none" />
      <path
         inkscape:connector-curvature="0"
         id="path3904"
         d="m 101.01492,912.36218 c 0,40.00001 0,80.00001 0,120.00002"
         style="fill:none;stroke:#eaeaea;stroke-width:17.57781028999999862;stroke-linecap:butt;stroke-linejoin:miter;stroke-miterlimit:4;stroke-opacity:1;stroke-dasharray:none" />
      <path
         inkscape:connector-curvature="0"
         id="path3906"
         d="m 121.01492,912.36218 c 0,40.00001 0,80.00001 0,120.00002"
         style="fill:none;stroke:#eaeaea;stroke-width:17.57781028999999862;stroke-linecap:butt;stroke-linejoin:miter;stroke-miterlimit:4;stroke-opacity:1;stroke-dasharray:none" />
      <path
         inkscape:connector-curvature="0"
         id="path3908"
         d="m 141.01492,912.36218 c 0,40.00001 0,80.00001 0,120.00002"
         style="fill:none;stroke:#eaeaea;stroke-width:17.57781028999999862;stroke-linecap:butt;stroke-linejoin:miter;stroke-miterlimit:4;stroke-opacity:1;stroke-dasharray:none" />
    </g>
    <path
       inkscape:connector-curvature="0"
       id="text3955"
       d="m 15.541553,1018.179 c 6.858155,-3.1743 16.903942,4.6226 9.52,10.668 -3.563256,1.1423 1.134794,4.0571 1.827136,6.1331 3.786654,2.8788 0.431177,5.3903 -2.008866,1.758 -1.754986,-2.6189 -3.686011,-5.1829 -5.33427,-7.8351 7.048796,-0.1035 5.932929,-10.9269 -1.148,-8.512 0,5.9827 0,11.9653 0,17.948 -4.277085,1.4739 -2.510829,-3.3381 -2.856,-5.8369 0,-4.7744 0,-9.5488 0,-14.3231 z"
       style="font-size:28px;font-style:normal;font-variant:normal;font-weight:normal;font-stretch:normal;line-height:125%;letter-spacing:0px;word-spacing:0px;fill:#202020;fill-opacity:1;stroke:none;font-family:Aller;-inkscape-font-specification:Aller" />
    <path
       inkscape:connector-curvature="0"
       id="text3959"
       d="m 34.523677,1018.2004 c 3.686667,0 7.373333,0 11.06,0 1.293435,4.1293 -3.893736,1.9572 -6.226062,2.492 -3.350849,-1.0053 -1.524818,3.1663 -1.977938,5.0587 0.823402,1.597 4.561747,0.2791 6.552,0.7093 1.322761,3.9689 -3.56668,2.0569 -5.836933,2.492 -1.609175,0.8342 -0.281836,4.605 -0.715067,6.6152 1.788271,0.6374 4.761132,0.09 7.00432,0.2728 4.166993,1.1151 -0.618037,3.5819 -3.245866,2.492 -2.009662,-0.4546 -5.877934,0.9495 -6.614454,-0.7783 0,-6.4512 0,-12.9025 0,-19.3537 z"
       style="font-size:28px;font-style:normal;font-variant:normal;font-weight:normal;font-stretch:normal;line-height:125%;letter-spacing:0px;word-spacing:0px;fill:#202020;fill-opacity:1;stroke:none;font-family:Aller;-inkscape-font-specification:Aller" />
    <path
       inkscape:connector-curvature="0"
       id="text3963"
       d="m 53.700523,1018.2039 c 3.743015,-1.6013 3.380745,3.3372 4.378997,5.9325 0.991104,3.7625 1.982207,7.525 2.973311,11.2875 1.503692,-5.74 3.007384,-11.48 4.511077,-17.22 4.680956,-1.5562 1.210201,3.7271 0.898754,6.2753 -1.338046,4.6189 -2.676093,9.2378 -4.014139,13.8567 -3.786987,1.648 -3.590905,-3.2308 -4.638578,-5.8854 -1.369807,-4.7489 -2.739615,-9.4977 -4.109422,-14.2466 z"
       style="font-size:26.41677856px;font-style:normal;font-variant:normal;font-weight:normal;font-stretch:normal;line-height:125%;letter-spacing:0px;word-spacing:0px;fill:#202020;fill-opacity:1;stroke:none;font-family:Aller;-inkscape-font-specification:Aller" />
    <path
       inkscape:connector-curvature="0"
       id="text3967"
       d="m 78.58665,1018.0952 c 4.279494,-1.5201 2.509097,3.3615 2.856,5.8369 0,4.765 0,9.5301 0,14.2951 -4.285309,1.5259 -2.505741,-3.3647 -2.856,-5.837 0,-4.765 0,-9.53 0,-14.295 z"
       style="font-size:28px;font-style:normal;font-variant:normal;font-weight:normal;font-stretch:normal;line-height:125%;letter-spacing:0px;word-spacing:0px;fill:#202020;fill-opacity:1;stroke:none;font-family:Aller;-inkscape-font-specification:Aller" />
    <path
       inkscape:connector-curvature="0"
       id="text3971"
       d="m 95.110826,1035.287 c 6.216204,4.5481 13.297234,-4.9305 4.430282,-6.7032 -8.780184,-2.0181 -3.025383,-14.0024 4.585722,-10.4888 5.01546,1.5623 -0.49366,3.5035 -3.32326,2.2015 -8.15431,4.1776 4.54923,6.2444 6.03926,10.0625 4.34096,7.8242 -13.400795,11.9588 -11.732004,4.928 z"
       style="font-size:28px;font-style:normal;font-variant:normal;font-weight:normal;font-stretch:normal;line-height:125%;letter-spacing:0px;word-spacing:0px;fill:#202020;fill-opacity:1;stroke:none;font-family:Aller;-inkscape-font-specification:Aller" />
    <path
       inkscape:connector-curvature="0"
       id="text3975"
       d="m 119.11999,1020.8972 c -2.2041,0.015 -7.2144,0.7382 -4.84687,-2.492 4.31296,0 8.62591,0 12.93887,0 1.64968,4.2213 -3.95146,1.5323 -5.236,2.8812 0,5.7503 0,11.5005 0,17.2508 -4.61494,1.5074 -2.31046,-4.0306 -2.856,-6.6152 0,-3.6749 0,-7.3498 0,-11.0248 z"
       style="font-size:28px;font-style:normal;font-variant:normal;font-weight:normal;font-stretch:normal;line-height:125%;letter-spacing:0px;word-spacing:0px;fill:#202020;fill-opacity:1;stroke:none;font-family:Aller;-inkscape-font-specification:Aller" />
    <path
       inkscape:connector-curvature="0"
       id="text3979"
       d="m 144.58814,1034.0922 c -2.548,0 -5.096,0 -7.644,0 -0.0654,2.4798 -2.44969,6.9886 -4.04315,3.908 2.10372,-6.464 4.20744,-12.928 6.31115,-19.392 4.10758,-1.6236 3.98043,2.9599 5.0754,5.5527 1.57487,4.8598 3.14974,9.7196 4.7246,14.5793 -3.85218,1.4504 -3.44225,-2.2545 -4.424,-4.648 z m -6.888,-2.492 c 1.68957,-0.5533 6.51077,1.2239 5.79684,-1.1182 -0.91495,-3.0526 -1.82989,-6.1052 -2.74484,-9.1578 -1.01733,3.4254 -2.03466,6.8507 -3.052,10.276 z"
       style="font-size:28px;font-style:normal;font-variant:normal;font-weight:normal;font-stretch:normal;line-height:125%;letter-spacing:0px;word-spacing:0px;fill:#202020;fill-opacity:1;stroke:none;font-family:Aller;-inkscape-font-specification:Aller" />
  </g>
</svg>
